<svg width="24" height="24" viewBox="0 0 24 24" fill="none" xmlns="http://www.w3.org/2000/svg">
<path fill-rule="evenodd" clip-rule="evenodd" d="M16.9034 4.92427C16.1536 2.1268 13.3975 0.48893 10.9529 1.14376C9.65017 1.49271 8.68064 2.31463 8.06504 3.36851C7.00471 2.76343 5.75366 2.53645 4.4511 2.88536C2.00575 3.54039 0.439035 6.33701 1.18847 9.13306C1.98848 12.1178 4.66551 13.9735 6.7088 15.0214L6.71178 15.0229L6.71285 15.0235C6.89712 15.1172 7.08255 15.2081 7.2691 15.2962C7.38775 16.3628 7.64264 17.3664 7.91617 18.2159L7.91696 18.2183C8.23663 19.1996 8.62616 20.1541 9.08199 21.0719C9.27344 21.4583 9.47721 21.8379 9.69315 22.2099L9.70098 22.2231L9.70489 22.2295C9.80955 22.4015 9.99861 22.6345 10.2702 22.7912C10.5418 22.948 10.8381 22.9952 11.0395 22.9998L11.057 23C12.5086 22.9994 13.9716 22.846 15.4069 22.5424L15.4108 22.5416C17.6549 22.0584 20.722 20.9588 22.2676 18.2826C23.7162 15.7743 22.9258 12.6677 20.7339 11.4026C19.5659 10.7285 18.2989 10.6243 17.1181 10.9344C17.0007 10.5049 16.8298 10.0931 16.6034 9.71048C16.3635 10.4006 16.0628 11.0506 15.7431 11.6431C15.7651 11.7619 15.7821 11.883 15.7939 12.0061C15.817 12.2474 15.9554 12.4625 16.1654 12.5837C16.3753 12.7049 16.6309 12.7172 16.8515 12.6167C17.8899 12.1435 18.9957 12.1309 19.9839 12.7013C21.3818 13.5081 22.0486 15.6627 20.9686 17.5328C19.7591 19.6269 17.255 20.6105 15.0953 21.0756C13.7661 21.3567 12.4118 21.499 11.0696 21.5005C11.0666 21.5003 11.0624 21.4999 11.0572 21.4992C11.0488 21.4981 11.0399 21.4965 11.0317 21.4946C11.0273 21.4935 11.0237 21.4925 11.0208 21.4916L11.0159 21.4869L11.0128 21.4837L11.005 21.4751C11.0019 21.4714 10.9988 21.4676 10.9959 21.4639C10.9911 21.4575 10.988 21.4528 10.9867 21.4507C10.7888 21.1094 10.6015 20.7603 10.4257 20.4053C10.0028 19.5539 9.64088 18.6675 9.34364 17.7552C9.16359 17.1959 9.00318 16.5972 8.88746 15.9802C8.77744 15.3937 8.70782 14.7907 8.70011 14.1894C8.68542 13.0451 8.89489 11.9068 9.47674 10.8993C10.5561 9.03029 12.7559 8.52946 14.1542 9.33656C14.4436 9.50356 14.6947 9.70431 14.908 9.93322C15.344 10.4013 15.6215 10.9872 15.7431 11.6431C16.0628 11.0506 16.3635 10.4006 16.6034 9.71048C17.1144 8.24034 17.3495 6.58844 16.9034 4.92427ZM15.4545 5.31238C14.8955 3.22667 12.9001 2.1746 11.3411 2.59219C10.239 2.88742 9.466 3.67798 9.06651 4.74647C8.98162 4.97349 8.7922 5.1455 8.55802 5.2082C8.32384 5.27091 8.07378 5.21658 7.88675 5.06237C7.00676 4.33676 5.94151 4.03856 4.83933 4.3338C3.27977 4.75155 2.07866 6.66051 2.63736 8.74495C3.24411 11.0087 5.29519 12.5796 7.21117 13.5923C7.2691 12.4269 7.54561 11.244 8.17771 10.1495C9.62557 7.64252 12.7117 6.77245 14.9042 8.03793C15.0914 8.14596 15.2672 8.26353 15.4318 8.38963C15.6767 7.3803 15.7283 6.33391 15.4545 5.31238Z" fill="#33354A"/>
</svg>
