<svg width="24" height="24" viewBox="0 0 24 24" fill="none" xmlns="http://www.w3.org/2000/svg">
<path d="M12 13.5C12.663 13.5 13.2989 13.2366 13.7678 12.7678C14.2366 12.2989 14.5 11.663 14.5 11C14.5 10.337 14.2366 9.70107 13.7678 9.23223C13.2989 8.76339 12.663 8.5 12 8.5C11.337 8.5 10.7011 8.76339 10.2322 9.23223C9.76339 9.70107 9.5 10.337 9.5 11C9.5 11.663 9.76339 12.2989 10.2322 12.7678C10.7011 13.2366 11.337 13.5 12 13.5Z" fill="#ffffff"/>
<path fill-rule="evenodd" clip-rule="evenodd" d="M19.071 3.42899C15.166 -0.476006 8.834 -0.476006 4.93 3.42899C1.025 7.33399 1.025 13.666 4.93 17.571L4.958 17.599L10.333 22.974C10.7754 23.4164 11.3754 23.6649 12.001 23.6649C12.6266 23.6649 13.2266 23.4164 13.669 22.974L19.072 17.571C22.977 13.666 22.977 7.33399 19.072 3.42899H19.071ZM5.99 4.48899C7.58803 2.91407 9.74394 2.03486 11.9876 2.04308C14.2313 2.0513 16.3807 2.94628 17.9671 4.53287C19.5536 6.11945 20.4484 8.26893 20.4564 10.5126C20.4644 12.7563 19.5851 14.9121 18.01 16.51L12.607 21.914C12.4459 22.0748 12.2276 22.1652 12 22.1652C11.7724 22.1652 11.5541 22.0748 11.393 21.914L6.015 16.536L6.013 16.534L5.99 16.51C4.39619 14.916 3.50082 12.7541 3.50082 10.5C3.50082 8.24585 4.39619 6.08402 5.99 4.48999V4.48899Z" fill="#ffffff"/>
</svg>
