<svg width="24" height="24" viewBox="0 0 24 24" fill="none" xmlns="http://www.w3.org/2000/svg">
<g clip-path="url(#clip0_501_860)">
<path fill-rule="evenodd" clip-rule="evenodd" d="M11.5 2C13.7441 2 15.5819 3.73924 15.7391 5.94327L17.8454 5.64633C19.3794 5.43007 20.75 6.621 20.75 8.17018L20.75 8.20376L20.7916 8.24578C21.3423 8.80075 21.7975 9.45128 22.1301 10.1708L22.1667 10.25L22.2143 10.25H22.2212C22.3503 10.25 22.5262 10.25 22.6847 10.2569C22.765 10.2604 22.8543 10.2662 22.9384 10.2769C22.9956 10.2842 23.147 10.3038 23.2924 10.3738C23.5475 10.4967 23.7533 10.7025 23.8762 10.9576C23.9582 11.1278 23.9819 11.2912 23.9915 11.4148C24.0001 11.5241 24 11.6502 24 11.7665V15.2202C24 15.3424 24.0001 15.4748 23.9907 15.5895C23.9801 15.7192 23.9539 15.8907 23.8638 16.0675C23.7439 16.3027 23.5527 16.4939 23.3175 16.6138C23.1684 16.6897 23.0128 16.7117 22.9516 16.7201C22.864 16.7321 22.7714 16.7385 22.6884 16.7424C22.5249 16.75 22.343 16.75 22.2077 16.75H21.6587L21.6139 16.75L21.5696 16.8144C20.8871 17.8093 19.9448 18.6121 18.8395 19.1253L18.75 19.167L18.75 19.2243V20.4C18.75 20.9601 18.75 21.2401 18.641 21.454C18.5451 21.6422 18.3922 21.7951 18.204 21.891C17.9901 22 17.7101 22 17.15 22H15.3499C14.7899 22 14.5098 22 14.2959 21.891C14.1078 21.7951 13.9548 21.6421 13.8589 21.454C13.7499 21.2401 13.7499 20.96 13.7499 20.4L13.7478 19.75L10.2999 19.75L10.2521 19.75C10.25 19.8459 10.2499 19.9492 10.2499 20.05L10.2499 20.4702L10.2499 20.5165C10.2498 20.6252 10.2488 20.7392 10.2406 20.8395C10.23 20.9692 10.2038 21.1407 10.1137 21.3175C9.99385 21.5527 9.80262 21.7439 9.56742 21.8638C9.39059 21.9539 9.21916 21.9801 9.0894 21.9907C8.97476 22.0001 8.84232 22 8.72016 22H6.7797C6.65754 22 6.5251 22.0001 6.41046 21.9907C6.2807 21.9801 6.10927 21.9539 5.93244 21.8638C5.69724 21.7439 5.50601 21.5527 5.38617 21.3175C5.29607 21.1407 5.26983 20.9692 5.25923 20.8395C5.24987 20.7248 5.2499 20.5924 5.24993 20.4702L5.24993 17.8298L5.24992 17.7962L5.20828 17.7542C4.2637 16.8022 3.09978 15.4011 2.81503 13.75H2.75C1.23122 13.75 0 12.5188 0 11C0 9.98117 0.554436 9.09272 1.37446 8.61836C1.733 8.41095 2.1918 8.53347 2.3992 8.89202C2.60661 9.25057 2.48409 9.70936 2.12554 9.91677C1.74996 10.134 1.5 10.5383 1.5 11C1.5 11.6904 2.05964 12.25 2.75 12.25H2.82612C3.05755 11.1008 3.78623 10.057 4.59656 9.21336C5.43127 8.34438 6.43348 7.60284 7.32924 7.07102C7.27725 6.80538 7.25 6.53087 7.25 6.25C7.25 3.90279 9.15279 2 11.5 2ZM8.75 6.25C8.75 4.73122 9.98122 3.5 11.5 3.5C13.0188 3.5 14.25 4.73122 14.25 6.25C14.25 6.35622 14.244 6.46103 14.2323 6.56411C14.2193 6.61508 14.2115 6.66813 14.2095 6.72267C13.9854 8.01623 12.8576 9 11.5 9C9.98122 9 8.75 7.76878 8.75 6.25ZM11.5 10.5C9.97392 10.5 8.6357 9.69566 7.88617 8.48778C7.14628 8.94819 6.34409 9.55939 5.67834 10.2525C4.7861 11.1813 4.24993 12.14 4.24993 13C4.24993 14.3209 5.20561 15.6219 6.27307 16.6977L6.29595 16.7206C6.37041 16.7949 6.48777 16.9121 6.56751 17.043C6.63747 17.1579 6.68449 17.272 6.71573 17.4028C6.75122 17.5514 6.75048 17.7066 6.75002 17.802L6.74993 17.8298L6.74994 20.5H8.74992L8.74993 20.45V20.0423C8.74993 19.907 8.74992 19.7251 8.75756 19.5616C8.76144 19.4786 8.76786 19.386 8.77985 19.2984C8.78824 19.2372 8.81023 19.0816 8.88617 18.9325C9.00601 18.6973 9.19724 18.5061 9.43244 18.3862C9.60927 18.2961 9.7807 18.2699 9.91046 18.2593C10.0251 18.2499 10.1575 18.25 10.2797 18.25H13.7202C13.8423 18.25 13.9748 18.2499 14.0894 18.2593C14.2192 18.2699 14.3906 18.2961 14.5674 18.3862C14.8026 18.5061 14.9938 18.6973 15.1137 18.9325C15.1896 19.0816 15.2116 19.2372 15.22 19.2984C15.232 19.386 15.2384 19.4786 15.2423 19.5616C15.2499 19.7251 15.2499 19.907 15.2499 20.0423V20.45L15.2499 20.5C15.4571 20.4999 16.0018 20.4993 16.5196 20.4932C16.7872 20.4901 17.0457 20.4856 17.25 20.4791L17.25 20.45V19.2243L17.2498 19.1808C17.2488 19.0353 17.2471 18.8003 17.3219 18.5894C17.3876 18.4041 17.4845 18.2523 17.6249 18.1147C17.7326 18.0091 17.8489 17.942 17.9302 17.8988C18.008 17.8575 18.1021 17.8139 18.1945 17.771L18.2079 17.7648C19.067 17.3659 19.801 16.7409 20.3327 15.9659L20.3561 15.9314C20.4312 15.8205 20.5489 15.6468 20.6974 15.527C20.8276 15.422 20.9634 15.3505 21.1237 15.3025C21.3059 15.248 21.5021 15.2491 21.623 15.2499L21.6587 15.25H22.2C22.3008 15.25 22.4041 15.2499 22.5 15.2479L22.5 15.2V11.7857L22.5 11.7519C22.4076 11.7501 22.3088 11.75 22.2143 11.75L22.1726 11.7502C22.0336 11.7511 21.8096 11.7526 21.6075 11.6845C21.4076 11.6171 21.2441 11.5126 21.0991 11.3594C21.0002 11.2549 20.9367 11.1435 20.8959 11.0657C20.8568 10.9913 20.8153 10.9014 20.7745 10.8131L20.7685 10.8001C20.5101 10.2412 20.156 9.73479 19.7269 9.3023L19.704 9.27939C19.6295 9.20508 19.5122 9.08793 19.4324 8.957C19.3625 8.84212 19.3154 8.72797 19.2842 8.59717C19.2487 8.44859 19.2495 8.2934 19.2499 8.19799L19.25 8.17018C19.25 7.53271 18.686 7.04266 18.0548 7.13165L15.7625 7.45481C15.736 7.46199 15.7045 7.46992 15.6719 7.47636C15.6366 7.48331 15.6011 7.48874 15.5655 7.49263C15.034 9.23359 13.4149 10.5 11.5 10.5Z" fill="#33354A"/>
</g>
<defs>
<clipPath id="clip0_501_860">
<rect width="24" height="24" fill="white"/>
</clipPath>
</defs>
</svg>
