<svg width="24" height="24" viewBox="0 0 24 24" fill="none" xmlns="http://www.w3.org/2000/svg">
<path fill-rule="evenodd" clip-rule="evenodd" d="M18.8962 2.56335C19.013 2.44653 18.9711 2.24889 18.8131 2.20055C17.2443 1.72094 15.4689 2.10155 14.228 3.3424C12.8991 4.67138 12.5568 6.61352 13.2014 8.25817L10.8275 10.6891L6.97541 6.83715V5.02404C6.97541 4.33483 6.53443 3.72021 5.87782 3.5017L4.02381 2.88403C3.61122 2.74657 3.15754 2.85448 2.85102 3.161L2.33583 3.67626C2.02931 3.98278 1.92134 4.43652 2.05885 4.84911L2.67665 6.70336C2.89503 7.35961 3.50837 7.80065 4.1988 7.80065H5.99446L9.86671 11.673L2.79402 18.9155C2.07801 19.6315 2.07801 20.7924 2.79402 21.5083C3.50996 22.2242 4.67079 22.2242 5.38673 21.5083L10.8582 15.9054L16.2186 21.2657C17.2461 22.2933 18.9968 22.2098 20.0243 21.1824C21.0518 20.1549 21.166 18.3734 20.1385 17.3459L14.7316 11.939L15.7941 10.8509C17.4388 11.4955 19.3809 11.1532 20.7098 9.82421C21.9508 8.58337 22.3314 6.80798 21.8517 5.23913C21.8034 5.08117 21.6057 5.0393 21.4889 5.15612L18.9274 7.71764C18.8378 7.80712 18.6928 7.80712 18.6033 7.71764L16.3347 5.44897C16.2451 5.35949 16.2451 5.21447 16.3347 5.12487L18.8962 2.56335ZM13.7708 12.9228L11.8189 14.9216L17.1909 20.2936C17.6814 20.784 18.5615 20.7007 19.052 20.2101C19.5426 19.7196 19.6567 18.8087 19.1662 18.3182L13.7708 12.9228ZM3.98115 6.26879C4.01222 6.36217 4.09925 6.42565 4.1988 6.42565H5.60041V5.02404C5.60041 4.92492 5.53694 4.83739 5.44398 4.80651L3.7234 4.23327L3.40803 4.54858L3.98115 6.26879Z" fill="#33354A"/>
</svg>
